<?xml version="1.0" encoding="UTF-8"?><svg id="_レイヤー_1" xmlns="http://www.w3.org/2000/svg" viewBox="0 0 800 800"><defs><style>.cls-1{fill:#96948d;}.cls-2{fill:#e6ddc3;}.cls-3{fill:#3e3a39;}.cls-4{fill:#e8dec3;}.cls-5{fill:#a38a77;}.cls-6{fill:#aeaca3;}.cls-7{fill:#c8bb9b;}.cls-8{fill:#b28146;}.cls-9{fill:#c3bfb5;}.cls-10{fill:#c79f62;}</style></defs><path class="cls-7" d="M461.68,257.58c0,1.06.61,3.08.61,4.91-1.12.01-2.17.6-3.3.55-7.79-.33-20.39-4.44-27.38-3.62-5.68.67-20,8.02-26.69,10.44-48.16,17.47-102.12,26.62-152.66,14.54-.89-.21-2.3-1.04-2.93.18-.66-.89-.79-1.8-1.23-2.45,61.54,15.57,126.08.15,182.81-24.63-.41-1.75.58-3.75.69-4.83l30.07,4.91ZM460.45,260.04l-25.16-3.68c.53,1,3.16,1.3,4.27,1.55,4.37.98,15.35,3.6,19.19,3.23.47-.05,1.88-.33,1.7-1.1Z"/><path class="cls-8" d="M155.45,538.44c-7.52-.84-27.15,2.31-32.48-3.42-1.96-2.11-1.71-5.06.25-7.02l27.94-26.38c9.4-.08,18.83.06,28.23,0l61.37-.61,149.14.61c-1.18,3.23-6.17,13-3.25,15.38,3.7,3.01,19.19,4.94,24.42,5.49,27.62,2.9,76.73,2.99,103.3-4.09,1.76-.47,6.2-1.27,6.74-3.08.92-3.08-.35-10.06-.5-13.69h5.52l19.92,22.74c5.34,9.11-5.48,13.46-12.87,14.08H235.85s-80.4,0-80.4,0Z"/><path class="cls-8" d="M237.06,538.66h297.34c7.39-.63,18.21-4.97,12.87-14.09l-19.92-22.74h34.98c-.04,2.45.27,4.98-.27,7.4-.78,1.12-9.42-.33-11.44,4.52-1.44,3.45,1.21,5.85,3.41,8.34,6.35,7.18,13.54,10.22,23.27,9.13,10.82-1.21,16.3-8.85,6.1-16.4-1.34-.99-6.32-3.23-6.65-3.78-.72-1.19-.24-7.22-.3-9.21,3.8.14,7.85-.62,11.37,1.21l36.5,35.92v30.38H94.67v-30.38l39.29-36.81c6.1-.63,12.29-.26,18.4-.32l-27.94,26.38c-1.96,1.97-2.21,4.92-.25,7.02,5.34,5.73,24.96,2.58,32.48,3.42h80.4Z"/><path class="cls-6" d="M164.03,522.71h-20.87c.29-.4.3-1.75,1.18-2.18,4.32-2.08,11.35-12.53,15.21-13.65,4.08-1.17,12.18.59,16.75-.13l63.83-.61c7.51.12,30.15-.82,35.02,5.21.43.53.39,1.03.58,1.54-.32,4.36-4.89,6.07-8.46,7.19-9.01,2.84-19.59,2.46-28.98,2.63h-74.26Z"/><path class="cls-1" d="M162.18,525.16c-2.53-1.61-19.55.11-20.26-.62-1.37-1.41,1.15-1.73,1.23-1.84h95.13c9.39-.17,19.97.21,28.98-2.63,3.57-1.12,8.14-2.83,8.46-7.19,2.09,5.74-5.49,8.13-9.95,9.38-9.13,2.56-18.15,2.26-27.48,1.67l-76.1,1.23Z"/><path class="cls-10" d="M612.05,442.31c-.03-4.3,6.85-2.79,9.46-3.12,4.17-.53,8.9-2.63,13.56-3.01,9.74-.78,25.07-.66,21.36,13.38-1.99,7.54-17.16,6.33-23.14,5.55-3.96-.52-7.8-1.87-11.75-2.37-2.46-.31-9.5,1.17-9.5-2.46,0-1.16.62-2.93.66-4.62.04-1.43-.65-2.74-.66-3.36Z"/><path class="cls-8" d="M612.05,442.31c0,.62.7,1.93.66,3.36-.04,1.69-.66,3.46-.66,4.62-17.16,2.07-9.05-13.05-12.89-22.71.62-6.33.99-12.66,1.23-19.03,2.9-.14,5.92,1.63,7.06,4.3,2.89,6.78-1.49,24.81,1.48,28.59.74.94,2.04.95,3.13.86Z"/><path class="cls-8" d="M194.71,395.66c-.96.17-4.58-.27-4.88.03-.27.27.05,5.52-4.33,3.35-1.37-.68-1.79-7.28-1.87-9.18-.13-3.26-1.04-10.46,3.41-10.7,3.11-.17,2.31,3.43,3.13,3.65,1.11.3,3.22-.27,4.54-.04-.28,3.4-.35,9.55,0,12.89Z"/><path class="cls-8" d="M200.85,377.87c.05,7.53-.09,15.5,0,22.71-3.85.56-5.75-1.23-6.14-4.91-.35-3.34-.28-9.49,0-12.89.36-4.39,1.63-5.15,6.14-4.91Z"/><path class="cls-9" d="M200.24,294.4c.04,3.1.59,6.9.61,10.43-4.77-.56-13.49,2.3-14.14-4.6-.75-7.99,8.32-5.48,13.52-5.83ZM191.47,296.94c-4.85,1.33-.46,7.77,2.95,4.23,2.12-2.21-.76-4.83-2.95-4.23Z"/><path class="cls-8" d="M216.19,472.99c.09.11-.25.86.12,1.13.79.59,2.31-.94,1.72,2.55-2.88.03-2.85,2.51-5.22,2.52-6.23.02-3.02-14.01,3.37-6.2Z"/><path class="cls-7" d="M570.93,487.72c-.62,2.77-.05,10.71,0,14.12.04,2.74-1.24,8.56,2.14,8.61,1.46.02.83-.39.93-1.52.18-2.25-.02-4.79,0-7.08.02-1.78-.84-10.93,1.53-10.43,1.53.32.88,8.6.93,10.43.05,1.99-.43,8.02.3,9.21.34.55,5.32,2.79,6.65,3.78,10.2,7.55,4.72,15.19-6.1,16.4-9.72,1.09-16.92-1.96-23.27-9.13-2.2-2.49-4.85-4.89-3.41-8.34,2.02-4.85,10.66-3.4,11.44-4.52.54-2.42.23-4.95.27-7.4.07-4.7-.05-9.42,0-14.12,2.61,1.81,5.9,1.27,8.59,0ZM562.33,519.02c-8.75,2.73.17,6.44,5.13,6.1,5.02-.35,10.03-4.96,3.76-6.7-1.67-.46-.47,2.09-1.17,3.1-.8,1.15-9.57,1.43-7.71-2.5Z"/><path class="cls-7" d="M570.93,487.72c-2.7,1.27-5.98,1.81-8.59,0s-2.53-6.76.03-8.87c4.62-3.81,11.54.41,10.29,5.97-.27,1.19-1.56,2.16-1.72,2.9Z"/><path class="cls-8" d="M574,501.84c-.02,2.3.19,4.84,0,7.08-.09,1.13.53,1.54-.93,1.52-3.38-.04-2.11-5.87-2.14-8.61h3.07Z"/><path class="cls-4" d="M562.33,519.02c-1.86,3.93,6.91,3.65,7.71,2.5.7-1.01-.49-3.57,1.17-3.1,6.27,1.75,1.26,6.36-3.76,6.7-4.96.34-13.88-3.37-5.13-6.1Z"/><path class="cls-8" d="M216.19,272.92c-.26-1.59.37-10.64-.03-11.02-.12-.11-1.62,0-2.39-.35-1.99-.94-2.45-3.62-1.31-5.4,1.01-1.58,16.13-1.44,18.08-.33s2.22,4.05.7,5.47c-.95.89-2.55.43-2.75.62-.4.38.24,9.43-.03,11.02-2.85-.06-5.74-.02-8.59,0-1.23,0-2.46-.01-3.68,0Z"/><path class="cls-8" d="M226.01,453.35c.76.06,1.84-.23,2.49.27.96.74-.24,2.73,2.12,2.19,1.65-.38,1.78-2.2,3.15-3.02,5.35-3.22,8.01,10.89.02,8.42-1.63-.5-1.08-3.45-4.95-2.37-.78.22-.51,2.64-1.08,3.02-.45.31-2.19.05-2.98.08-2.42.07-4.74.51-6.75.61-3.54.18-5.72.16-6.11-4.07-.43-4.68.95-4.94,4.88-5.14,2.78-.14,6.47-.22,9.21,0Z"/><path class="cls-8" d="M219.87,440.47c2.04-.06,4.1.08,6.14,0v12.89c-2.74-.22-6.43-.14-9.21,0v-12.27c.31,0,1.7-.58,3.07-.61Z"/><path class="cls-8" d="M224.78,461.95v15.35c-.61.03-1.23-.02-1.84,0-.8.03-1.66.05-2.45,0s-1.75-.62-2.45-.61c.59-3.49-.93-1.97-1.72-2.55-.36-.27-.03-1.02-.12-1.13,2.15.08,1.69.38,1.84-1.5.23-2.93-.17-5.99,0-8.93,2.01-.1,4.34-.54,6.75-.61Z"/><path class="cls-9" d="M222.94,477.29c.5,6.97-.64,19.31-.61,26.25-.41-.02-.82.01-1.23,0l-.61-26.25c.8.05,1.65.03,2.45,0Z"/><path class="cls-2" d="M219.87,280.28v152.2h-18.41c-.27-10.63-.48-21.33-.61-31.91-.09-7.21.05-15.18,0-22.71-.15-24.33.19-48.7,0-73.03-.03-3.53-.57-7.34-.61-10.43-.06-4.83.42-9.55.61-14.12h19.03Z"/><path class="cls-2" d="M219.87,434.33v6.14c-1.37.04-2.76.61-3.07.61-3.05.06-9.75.5-12.31-.27-3.47-1.05-2.9-3.75-3.04-6.48h18.41Z"/><path class="cls-2" d="M216.19,272.92c1.23-.01,2.46,0,3.68,0v6.14h-19.03c0-.09-.58-.52-.59-.99-.06-1.69.27-4.44,2.24-5.03,2.46-.74,10.46-.08,13.69-.12Z"/><path class="cls-8" d="M219.87,432.49v1.84h-18.41c-.03-.61.02-1.23,0-1.84h18.41Z"/><path class="cls-8" d="M219.87,279.06v1.23h-19.03c.02-.41-.02-.82,0-1.23h19.03Z"/><path class="cls-9" d="M239.51,498.77c-1.72,3.11-4.42,9.78-8.32,10.4-8.76-.45-22.63,3.97-27.81-5.87-3.52-6.69,4.17-.55,6.96-.21,1.19.14,5.71.24,6.66.01s.53-2.36,1.41-2.53c.3-.06,3.75.55,3.91.67.06.04-.26,1.06.4,1.24.86.23,5.61.13,6.53-.14,1.92-.56,2.23-2.8,2.89-3.56,1.61-1.86,4.29-4.7,6.77-2.14.77.8.47,1.96.6,2.14Z"/><path class="cls-3" d="M228.47,272.92c4.07.08,9.75-.74,13.32,1.11,2.68,1.38,4.61,5.54,6.32,8.1.44.66.57,1.56,1.23,2.45,2.6,3.54,5.17,3.24,8.6,5.21,14.22,8.12,14.57,18.57,35.25,19.98,44.67,3.05,90.4-15.57,134.12-19.05,3.69-.29,9.7-.61,13.2-.61h19.03c.8,0,4.66.46,5.83.61,16.84,2.28,33.23,11.11,41.74,26.12,3.66-.23,7.35-.52,11.04-.34,5.38.26,6.4.24,7.81,6,2.16,8.79,2.15,30.07-.12,38.82-1.2,4.62-1.81,4.78-6.46,5.51-1.13.18-2.5-.15-3.68,0-.76,11.02-1.01,22.37-.64,33.47.29,8.78.79,20.2,1.86,28.82.51,4.07,3.02,5.82,6.34,7.77,11.35,6.68,25.4,5.17,37.85,4.81,5.24-.15,6.73,2.41,11.05-3.38,10.08-13.53,8.52-66.2,6.05-83.38-.49-3.4-1.17-7.55-2.05-10.83-.84-3.12-3.59-7.81-3.96-10.16-1.41-8.97,1.8-20.06-2.98-28.94-.78-1.45-2.42-2.12-2.58-3.86,4.02,0,12.21-1.24,14.38,2.5.26.45,1.58,4.32,1.58,4.56v21.17h8.9c2.05,0,4.24,5.81,4.76,7.51,5.59,18.21,4.86,52.17,4.14,71.66-.23,6.37-.61,12.69-1.23,19.03-.75,7.6-1.71,25.05-9.39,28.97-1.96,1-5.83,1.58-8.08,1.74-13.79,1.02-30.24-1.61-43.61-.04-10.17,1.19-1.35,20.27-7.87,26.81-2.1,2.11-6.11,2.54-8.99,2.67.34,4.7.42,9.4.61,14.11.14,3.63,1.42,10.61.5,13.69-.54,1.81-4.98,2.61-6.74,3.08-26.57,7.09-75.68,7-103.3,4.09-5.23-.55-20.72-2.48-24.42-5.49-2.92-2.37,2.06-12.14,3.25-15.38,5.99-16.36,12.38-32.05,17.01-48.97,5.64-20.58,15.57-60.86-3.56-76.49-15.25-12.46-56.02-11.23-75.74-12.03-16.29-.66-50.16-5.05-63.21,5.54-8.49,6.89-4.88,13.01-5.21,21.8-.4,10.79-12.6,35.8-19.68,44.15-5.24,6.18-7.38,4.31-14.72,4.62-2.03.08-4.1-.06-6.14,0v-167.55c2.85-.02,5.74-.06,8.59,0ZM246.9,367.45c-4-1.38-7.14-3.88-11.69-3.08.79-4.7-1-9.22-1.25-13.79-.89-16.51.74-33.79-.01-50.38.33-2.43,4.88-5.86-1.85-5.53-1.7,1.98.41,3.59.69,5.53,2.06,14.61-.31,38.26-.06,54.07.02,1.45.64,2.79.66,4.25.11,5.71-.16,11.43.01,17.14-8.97,2.46-13.55,12.08-8.65,20.34,4.88,8.24,17.46,8.76,23,.86,6.7-9.56-1.03-22.27-12.54-21.44v-8.9c0-2.76,9.75,2.33,11.18,2.17-.2,1.38.66,2.7,2.01,3.07s2.76-.33,3.29-1.63c.53-1.29,0-2.78-1.22-3.46-1.22-.68-2.76-.34-3.58.79ZM493.65,382.25c0-17.24-13.98-31.22-31.22-31.22s-31.22,13.98-31.22,31.22,13.98,31.22,31.22,31.22,31.22-13.98,31.22-31.22ZM481.98,474.78c0-11.7-9.49-21.19-21.19-21.19s-21.19,9.49-21.19,21.19,9.49,21.19,21.19,21.19,21.19-9.49,21.19-21.19Z"/><path class="cls-4" d="M562.95,301.15c2.06,28.19,2.41,66.38-2.63,94.03-.95,5.22-3.83,16.59-7.8,20.13-3.71,3.3-11.25,3.04-15.3.27-6.5-4.45-5.75-10.26-8.02-16.22,10.45,2.43,11.4-13.89,12.27-21.18,2.64-22.14,2.69-50.84.62-73.02-.59-6.29-2.84-32.09-14.11-23.02,2.03-10.78,5.38-24.57,19.28-22.65,9.56,1.32,12.41,16.56,13.68,24.37.92,5.63,1.6,11.64,2.02,17.31Z"/><path class="cls-8" d="M566.63,301.15c.16,1.74,1.8,2.41,2.58,3.86,4.77,8.88,1.57,19.96,2.98,28.94.37,2.34,3.12,7.03,3.96,10.16.88,3.29,1.57,7.44,2.05,10.83,2.47,17.17,4.03,69.85-6.05,83.38-4.31,5.78-5.81,3.22-11.05,3.38-5.65-7.81-6.72-17.17-8.59-26.39,3.97-3.53,6.85-14.9,7.8-20.13,5.04-27.65,4.7-65.83,2.63-94.03h3.68Z"/><path class="cls-8" d="M529.19,399.35c-.47-1.23-2.33-2.39-3.19-3.87-4.68-7.99-6.21-19.55-6.63-28.66,4.65-.73,5.26-.88,6.46-5.51,2.27-8.75,2.28-30.03.12-38.82-1.41-5.76-2.43-5.74-7.81-6,.17-9.1,2.42-28.41,9.82-34.37,11.27-9.07,13.52,16.73,14.11,23.02,2.08,22.18,2.02,50.88-.62,73.02-.87,7.29-1.81,23.61-12.27,21.18Z"/><circle class="cls-8" cx="249.14" cy="369.08" r="2.77"/><path class="cls-8" d="M443.89,241.62c1.76-.02,4.08-.01,6.14,0,2.6.01,16.17-.4,17.2.29,2.59,1.74-3.76,5.52-4.93,6.46h-30.69c-1.75-1.1-7.72-4.82-4.29-6.44,1.89-.89,13.43-.29,16.56-.32Z"/><path class="cls-7" d="M462.3,262.49c0,1.84,0,3.69,0,5.52h-.61l-30.07,5.52v-14.12c6.99-.82,19.59,3.28,27.38,3.62,1.13.05,2.18-.54,3.3-.55ZM451.86,263.72c-1.04-1.09-15.68,4.4-18.42,3.68.08.5-.12,1.69,0,1.84.63.69,16.02-3.43,18.41-3.68-.08-.5.12-1.71,0-1.83Z"/><path class="cls-8" d="M431.61,283.97c8.91-1.41,21.38,1.05,30.69,0,2.31,1.33,7.88,5.08,3.07,6.75-1.17-.16-5.03-.61-5.83-.61h-19.03c-3.49,0-9.51.32-13.2.61-3.75-2.02,2.03-6.39,4.3-6.75Z"/><path class="cls-7" d="M462.3,248.37c-.06,2.36.08,4.74.03,7.11-.02.81-.64,1.4-.64,1.48l-30.07-5.52c.11-1-.07-2.06,0-3.07h30.69Z"/><path class="cls-5" d="M462.3,271.08c0,.2,0,.41,0,.61-1.84,1.28-14.98,4.14-15.35,5.22-.42,1.24,2.72,1.19,3.57,1.34,3.88.65,7.82,1.46,11.78,1.42v1.84c-4.86,0-10.28-1.79-15.06-1.86-2.08-.03-3.54,1.11-5.49,1.25-3.31.25-6.8-.19-10.13,0v-4.3c10.45,1.43,20.47-3.94,30.69-5.52Z"/><path class="cls-7" d="M462.3,281.51v2.45c-9.31,1.05-21.78-1.41-30.69,0v-.61l.6-.31-.6-.31v-1.84c3.33-.18,6.82.25,10.13,0,1.95-.15,3.41-1.29,5.49-1.25,4.78.08,10.21,1.87,15.06,1.86Z"/><path class="cls-7" d="M462.3,271.08c-10.22,1.59-20.24,6.95-30.69,5.52v-1.84c10.09-1.86,20.28-3.69,30.07-6.75h.61c0,1.02,0,2.05,0,3.07Z"/><path class="cls-7" d="M462.3,279.67c-3.96.05-7.9-.76-11.78-1.42-.86-.14-3.99-.1-3.57-1.34.37-1.08,13.51-3.94,15.35-5.22,0,2.65,0,5.33,0,7.98Z"/><path class="cls-8" d="M450.02,241.62c-2.06-.01-4.38-.02-6.14,0-1.81-11.03,7.55-10.28,6.14,0Z"/><path class="cls-5" d="M461.68,256.96c0,.2,0,.41,0,.61l-30.07-4.91c.04-.4-.04-.83,0-1.23l30.07,5.52Z"/><path class="cls-5" d="M460.45,260.04c.18.77-1.23,1.05-1.7,1.1-3.83.37-14.82-2.25-19.19-3.23-1.11-.25-3.73-.55-4.27-1.55l25.16,3.68Z"/><path class="cls-5" d="M461.68,268.01c-9.79,3.06-19.98,4.89-30.07,6.75v-1.23l30.07-5.52Z"/><path class="cls-5" d="M451.86,263.72c.12.13-.07,1.34,0,1.83-2.39.26-17.78,4.38-18.41,3.68-.13-.14.07-1.34,0-1.84,2.74.72,17.37-4.78,18.42-3.68Z"/><polygon class="cls-5" points="431.61 283.35 431.61 282.74 432.21 283.05 431.61 283.35"/><path class="cls-2" d="M493.65,382.25c0,17.24-13.98,31.22-31.22,31.22s-31.22-13.98-31.22-31.22,13.98-31.22,31.22-31.22,31.22,13.98,31.22,31.22ZM486.84,379.09c-.19-7.44-6.3-15-12.68-18.3-1.01-.52-7.23-2.94-7.56-2.56-.11.13-.28,1.46.41,1.85.94.53,3.68.85,5.11,1.52,7.84,3.69,10.35,8.6,13.35,16.14.37.93-.36,1.66,1.38,1.35ZM458,358.84c-9.55.53-19.56,10.51-19.63,20.25,1.74.31,1.01-.41,1.38-1.35,4.43-11.13,5.94-12.85,17.03-17.4.97-.4,1.51.08,1.23-1.5ZM486.84,390.14c-.54-.5-1.45-.12-2,.77-1.17,1.87-1.75,3.95-3.26,5.93-2.67,3.5-5.97,5.44-9.85,7.33-.41.2-6.56,1.94-5.13,3.15,1.68,1.43,11.78-4.79,13.51-6.43,1.19-1.12,7.7-9.86,6.73-10.75ZM457.33,405.54c-.15-.23-4.28-1.28-5.27-1.79-6.27-3.21-7.39-6.37-11.13-11.57-2.62-3.65-1.97-.14-.6,2.44,2.91,5.5,10.14,11.29,16.22,12.64,1.28.28,1.11-1.24.79-1.72Z"/><path class="cls-8" d="M486.84,379.09c-1.74.31-1.01-.41-1.38-1.35-3-7.54-5.51-12.46-13.35-16.14-1.43-.67-4.17-.99-5.11-1.52-.69-.39-.52-1.72-.41-1.85.33-.38,6.56,2.04,7.56,2.56,6.38,3.3,12.5,10.86,12.68,18.3Z"/><path class="cls-8" d="M458,358.84c.28,1.58-.26,1.1-1.23,1.5-11.09,4.56-12.59,6.27-17.03,17.4-.37.93.36,1.66-1.38,1.35.07-9.74,10.09-19.72,19.63-20.25Z"/><path class="cls-8" d="M486.84,390.14c.96.89-5.54,9.63-6.73,10.75-1.74,1.64-11.83,7.85-13.51,6.43-1.44-1.22,4.72-2.96,5.13-3.15,3.88-1.89,7.18-3.83,9.85-7.33,1.51-1.97,2.09-4.06,3.26-5.93.56-.89,1.46-1.26,2-.77Z"/><path class="cls-8" d="M457.33,405.54c.32.47.49,2-.79,1.72-6.08-1.35-13.31-7.13-16.22-12.64-1.37-2.58-2.02-6.09.6-2.44,3.74,5.21,4.86,8.36,11.13,11.57.99.51,5.12,1.56,5.27,1.79Z"/><path class="cls-2" d="M246.4,368.68c-1.44.16-11.18-4.92-11.18-2.17v8.9c11.51-.83,19.24,11.88,12.54,21.44-5.54,7.9-18.12,7.38-23-.86-4.9-8.27-.32-17.88,8.65-20.34-.18-5.71.1-11.43-.01-17.14-.03-1.45-.64-2.79-.66-4.25-.25-15.81,2.12-39.46.06-54.07-.28-1.95-2.39-3.55-.69-5.53,6.73-.32,2.18,3.1,1.85,5.53.75,16.59-.88,33.88.01,50.38.25,4.57,2.04,9.09,1.25,13.79,4.54-.8,7.68,1.7,11.69,3.08-.26.36-.44.79-.5,1.23ZM230.31,395.66c.49.48,2.5,2.37,3.06,1.84.06-2.39,1.88-4.39,3.19-6.33,1.73-2.58,4.07-6.43,6.64-7.8-.51-.9-1.83-2.87-3.08-2.18-.68.38-8.47,11.24-9.19,12.62-1.82.04-1.92.46-1.87-1.54.11-4.35,5.77-9.48,8.62-12.57-8.75-.32-14.04,9.39-7.36,15.95ZM233.99,398.11c8.27,1.24,14.24-6.5,10.42-14.1l-5.28,9.13c-1.02.9-1.68,2.71-2.64,3.5-1.01.83-2.41.46-2.51,1.47Z"/><path class="cls-8" d="M244.36,384.04c-.11-.17-.22-.34-.34-.51-2.8-3.78-8.28-4.8-12.3-2.28-.2.12-.39.25-.58.39-2.48,1.8-3.91,4.75-3.71,7.81.16,2.52,1.45,4.88,3.31,6.56.93.84,2.02,1.53,3.19,1.99,1.34.53,2.39.32,3.78.06,2.94-.54,5.56-2.4,6.91-5.09.67-1.33,1-2.81.99-4.29-.02-1.67-.37-3.25-1.23-4.64Z"/><path class="cls-8" d="M481.98,474.78c0,11.7-9.49,21.19-21.19,21.19s-21.19-9.49-21.19-21.19,9.49-21.19,21.19-21.19,21.19,9.49,21.19,21.19ZM478.75,474.72c0-9.93-8.05-17.99-17.99-17.99s-17.99,8.05-17.99,17.99,8.05,17.99,17.99,17.99,17.99-8.05,17.99-17.99Z"/><path class="cls-2" d="M478.75,474.72c0,9.93-8.05,17.99-17.99,17.99s-17.99-8.05-17.99-17.99,8.05-17.99,17.99-17.99,17.99,8.05,17.99,17.99ZM477.04,474.69c0-8.99-7.28-16.27-16.27-16.27s-16.27,7.28-16.27,16.27,7.28,16.27,16.27,16.27,16.27-7.28,16.27-16.27Z"/><circle class="cls-8" cx="460.77" cy="474.69" r="16.27"/></svg>