<svg id="header-logo-svg" class="header-logo-img" xmlns="http://www.w3.org/2000/svg" viewBox="0 0 425.2 145"><defs><style>#header-logo-svg .cls-1{fill:currentColor;}</style></defs><g><path class="cls-1" d="M45.39,97.45c-.37,2.2-.97,4.51-1.8,6.91-.84,2.41-1.8,4.55-2.88,6.43-.38-.3-.89-.64-1.52-1.04-.63-.39-1.22-.74-1.77-1.03.97-1.6,1.82-3.44,2.55-5.51.73-2.07,1.18-3.94,1.34-5.6l4.08-.16ZM49.82,105.4c-.09,2.15-.4,4.59-.91,7.3l9.34,22.77-3.59,1.47-7.37-17.97c-.63,1.79-1.25,3.3-1.86,4.52-.39-.33-.97-.77-1.74-1.33-.77-.56-1.39-.98-1.85-1.24,1.15-2.13,2.08-4.55,2.8-7.27.72-2.72,1.14-5.39,1.23-8l3.95-.25ZM56.5,106.71l-2-4.89-5.18,2.12-1.35-3.3,5.18-2.12-2.02-4.93,3.64-1.49,2.02,4.93,5.22-2.14,1.35,3.3-5.22,2.14,2,4.89,5.93-2.43,1.4,3.43-15.54,6.37-1.4-3.43,5.97-2.45ZM75.11,122.8c-4.08,2.36-8.42,4.79-13.02,7.29l-2.9,1.63-1.89-3.42,4.13-2.18,2.41-1.28-2.38-5.81-5.64,2.31-1.37-3.34,5.64-2.31-1.94-4.72,3.68-1.51,1.94,4.72,5.68-2.33,1.37,3.34-5.68,2.33,2.21,5.39,1.35-.75,4.88-2.73,1.53,3.37ZM73.14,87.29l1.42,3.47-10.45,4.28-1.42-3.47,10.45-4.28ZM79.67,101.65l-3.51,1.44,6.96,16.96c.43,1.06.65,1.93.63,2.62-.01.69-.28,1.3-.81,1.84-.46.55-1.14,1.05-2.04,1.52s-2.21,1.05-3.94,1.76c-.27-.51-.67-1.09-1.18-1.74-.51-.65-1.01-1.22-1.5-1.7,2.64-1.02,4.14-1.62,4.49-1.79.28-.11.45-.24.52-.39.07-.14.05-.35-.06-.63l-6.92-16.88-3.97,1.63-1.42-3.47,11.32-4.64,1.42,3.47Z"/>
<path class="cls-1" d="M86.14,93.23l-1.1-4.01,26.12-7.19,1.16,4.22c-2.26.97-4.32,2.39-6.18,4.28-4.25,4.29-6.33,8.33-6.22,12.11.04,1.05.16,1.95.37,2.71.3,1.07.77,2.01,1.42,2.79.89,1.07,2.04,1.81,3.44,2.21,1.41.41,2.95.48,4.62.2.98-.18,1.85-.37,2.6-.58,1.13-.31,2.35-.76,3.66-1.34l1.14,4.14c-.98.4-2.17.79-3.57,1.17-.87.24-1.84.47-2.9.7-3.3.63-6.21.32-8.73-.92-3-1.48-4.95-3.85-5.84-7.1-.08-.29-.19-.79-.32-1.5-.32-2.97.06-5.71,1.14-8.21,1.08-2.5,3.03-5.26,5.85-8.28l-16.68,4.59ZM106.11,92.28l3.31-.91,1.89,6.88-3.31.91-1.89-6.88ZM111.3,90.85l3.31-.91,1.89,6.88-3.31.91-1.89-6.88Z"/>
<path class="cls-1" d="M149.47,73.93c2.26,1.01,4.45,2.1,6.59,3.28,2.14,1.18,3.82,2.26,5.07,3.23l-3.13,3.03c-.93-.78-2.06-1.59-3.36-2.43-11.42,2.51-21.54,4.58-30.36,6.23l-.8-3.76,6.09-1.12c.95-1.91,1.72-3.7,2.31-5.36l-10.9,1.92-.64-3.65,17.26-3.05-.72-4.09,4.22-.75.72,4.09,17.39-3.07.64,3.65-10.36,1.83ZM159.04,102.14c.18,1.04.17,1.86-.05,2.46-.22.6-.69,1.09-1.42,1.46-.7.37-1.6.69-2.7.96-1.1.27-2.69.59-4.76.96-.21-.48-.49-1.02-.84-1.62s-.7-1.11-1.05-1.53c.81-.08,1.99-.26,3.53-.53,1.27-.22,2.01-.37,2.22-.44.38-.07.64-.17.77-.32s.16-.38.1-.71l-.53-3.02-18.5,3.27,1.27,7.2-4.14.73-3.92-22.19,26.82-4.74,3.19,18.06ZM152.28,88.25l-18.5,3.27.49,2.8,18.5-3.27-.49-2.8ZM137.11,76.11c-.87,1.68-1.85,3.48-2.95,5.38,4.53-.86,7.84-1.51,9.93-1.94,1.33-.24,3.33-.62,5.99-1.15-1.25-.67-2.73-1.41-4.43-2.24l2.09-1.93-10.63,1.88ZM135.29,100.1l18.5-3.27-.5-2.85-18.5,3.27.5,2.85Z"/>
<path class="cls-1" d="M178.65,82.83l-.29-5.05-7.17.41-.24-4.15,7.17-.41-.25-4.46,4.24-.24.25,4.46,5.86-.33.23,4.15-5.86.33.41,7.21c1.03,1.21,1.61,2.88,1.73,5.01.07,1.23-.03,2.46-.31,3.68-.28,1.22-.69,2.26-1.25,3.1-.25.38-.37.68-.35.92.01.18.11.36.3.53.19.17.52.38.98.62.41.25.91.4,1.52.46.61.06,1.39.06,2.35,0,2.16-.12,3.74-.63,4.73-1.51.99-.89,1.43-2.2,1.34-3.94-.12-2.1-.59-4.31-1.42-6.61l4.37-.25c.56,1.87.97,3.87,1.25,5.99.17,1.47.08,2.98-.29,4.54-.44,1.77-1.54,3.18-3.29,4.21-1.75,1.03-4.01,1.63-6.77,1.79-2.44.14-4.31-.13-5.63-.81-1.32-.68-2.37-1.71-3.14-3.08-.26.14-.87.29-1.83.47-.15.04-.37.07-.67.08-.99.06-1.89-.15-2.7-.62-1-.52-1.78-1.38-2.36-2.58s-.92-2.57-1-4.1c-.1-1.71.07-3.32.52-4.82.44-1.5,1.13-2.73,2.08-3.67s2.07-1.45,3.4-1.53c.36-.02.75,0,1.18.07l.91.13ZM175.31,94.85c.46.74,1.18,1.09,2.14,1.03,1.02-.06,1.82-.52,2.39-1.38.57-.86.9-2.06.99-3.61,0-1.42-.26-2.53-.8-3.35-.54-.81-1.33-1.22-2.35-1.22-1.89.26-2.92,1.93-3.11,5.02.03,1.6.28,2.77.74,3.51ZM192.86,68.5c2.19,3.47,4.16,7.08,5.91,10.84l-4.69.27c-1.45-3.2-3.36-6.82-5.73-10.85l4.51-.26Z"/>
<path class="cls-1" d="M206.87,73.26l.14-4.42,27.17.87-.15,4.69c-.7,3.86-1.78,7.04-3.24,9.52-1.37,2.4-2.87,4.37-4.48,5.93-1.62,1.56-3.61,3.11-5.98,4.66l4.02,6.95-5.28-.17-10.78-18.96,5.24.17,4.62,8.1c1.9-1.02,3.54-2.27,4.91-3.73,3.58-3.71,5.72-8.01,6.42-12.9l-22.62-.73Z"/>
<path class="cls-1" d="M242.11,82.92l19.37,2.37-.54,4.44-19.37-2.37.54-4.44Z"/>
<path class="cls-1" d="M285.71,73.38l-.91,2.03c-.29.68-1.12,2.22-2.52,4.61l18.92,3.71-.85,4.34-6.82-1.34c-1.4,4.45-3.11,7.97-5.13,10.57-2.03,2.59-4.31,4.56-6.84,5.91-3.55,1.97-7.15,3.2-10.8,3.68l.91-4.65c2.16-.4,4.17-1.02,6.02-1.85,5.24-2.32,9.03-7.16,11.36-14.52l-9.22-1.81c-3.16,3.61-6.47,6.14-9.91,7.58l1.05-5.36c2.14-1.39,4.11-3.32,5.9-5.79,1.79-2.47,3.24-5.13,4.35-7.98l4.48.88Z"/>
<path class="cls-1" d="M306.8,109.23c2.63.25,5.24-.15,7.84-1.22,2.6-1.06,4.84-2.65,6.72-4.75,1.65-1.83,3.06-3.71,4.23-5.62s2.27-4.07,3.3-6.46l3.76,1.13c-.78,1.97-1.65,3.85-2.63,5.65-.98,1.8-2.17,3.62-3.57,5.46-1.47,1.98-3.32,3.78-5.53,5.42-2.3,1.7-4.78,2.91-7.45,3.64-2.67.73-5.28.93-7.82.61l1.15-3.85ZM312.63,100.13l-3.55-1.06,1.7-13.4,3.38,1.01-1.53,13.45ZM319.69,102.24l-3.5-1.05,1.66-13.41,3.37,1.01-1.52,13.45Z"/>
<path class="cls-1" d="M361.42,112.9l-17.61-6.81-6.66,17.23-4.38-1.69,12.7-32.86,4.38,1.69-4.43,11.46,17.61,6.81-1.61,4.17Z"/>
<path class="cls-1" d="M371.9,122.86c.72,1.01,1.15,2.15,1.28,3.41.13,1.26-.06,2.47-.57,3.63-.51,1.16-1.28,2.1-2.29,2.84s-2.14,1.18-3.38,1.32-2.44-.04-3.63-.57c-1.16-.51-2.1-1.28-2.84-2.29-.73-1.02-1.18-2.15-1.33-3.41s.03-2.46.54-3.61c.51-1.16,1.28-2.1,2.31-2.83,1.03-.73,2.17-1.17,3.43-1.32,1.25-.15,2.46.03,3.61.54,1.18.52,2.14,1.29,2.86,2.3ZM367.74,131.09c1.11-.43,1.91-1.19,2.4-2.3.49-1.1.52-2.21.09-3.32-.43-1.11-1.2-1.91-2.3-2.4-1.1-.49-2.21-.52-3.32-.09-1.11.43-1.91,1.19-2.4,2.3-.49,1.1-.52,2.21-.09,3.32.43,1.11,1.19,1.91,2.29,2.4,1.1.49,2.21.52,3.32.09Z"/>
<path class="cls-1" d="M64.24,44.97c1.53,4.25,2.71,8.53,3.56,12.83.84,4.3.97,8.21.37,11.72-.49-.21-1.18-.42-2.08-.64-.89-.22-1.59-.36-2.09-.4.57-3.21.46-6.67-.32-10.37s-1.92-7.6-3.39-11.71l-3.88-10.79,15.3-5.5-1.86-5.18,4.12-1.48,1.86,5.19,15.77-5.67,1.38,3.83-31.24,11.23,2.51,6.97ZM70.23,62.69c.38-1.87.46-4.03.21-6.48-.24-2.46-.71-4.99-1.38-7.59l3.9-.49c1.57,6.6,2.03,11.56,1.36,14.87l-4.09-.3ZM84.6,41.01c-1.33-.58-3.17-1.16-5.52-1.74-2.35-.58-4.57-1-6.65-1.28l1.75-3.56c2.06.22,4.26.57,6.6,1.06,2.33.49,4.21,1.01,5.62,1.55l-1.79,3.96ZM90.2,56.71c.54-.19.87-.5.98-.93.12-.43.06-1.13-.18-2.12-.24-.98-.7-2.55-1.38-4.71.47.15,1.11.26,1.91.32s1.52.08,2.15.04c.73,2.49,1.16,4.42,1.29,5.8s-.05,2.45-.54,3.22-1.38,1.38-2.65,1.84l-5.52,1.99c-1.36.49-2.45.7-3.28.63-.83-.07-1.52-.43-2.07-1.08-.55-.65-1.08-1.67-1.58-3.06l-5.61-15.6,3.87-1.39,5.61,15.6c.26.74.54,1.17.83,1.31.29.14.8.07,1.54-.19l4.63-1.67ZM91.72,39.32c2.23,1.76,4.36,3.71,6.4,5.86,2.04,2.15,3.56,4.08,4.56,5.8l-3.29,3.01c-.95-1.74-2.42-3.73-4.42-5.97-2.01-2.24-4.08-4.25-6.23-6.04l2.98-2.66Z"/>
<path class="cls-1" d="M117.15,48.62c.23,1.03.29,1.86.19,2.5-.1.64-.42,1.17-.94,1.6-.49.45-1.15.82-1.99,1.12-.84.3-2.03.62-3.56.96-.17-.49-.44-1.08-.82-1.78-.37-.7-.75-1.29-1.13-1.76l2.43-.5,1.44-.37c.29-.07.49-.16.58-.29.09-.13.11-.34.04-.63l-2.15-9.61-4.55,2.64-1.57-3.91,5.22-2.74-2.22-9.92-5.11,1.15-.85-3.79,5.11-1.15-1.92-8.55,3.75-.84,1.92,8.55,4.41-.99.85,3.79-4.41.99,1.97,8.77,1.03-.56,2.88-1.62,1.41,3.62-4.42,2.57,2.41,10.75ZM139.1,9.45c-2.83,1.28-6.31,2.59-10.44,3.91-4.13,1.33-8.29,2.51-12.47,3.54-.38-1.02-.93-2-1.63-2.92,4.02-1.06,8.02-2.22,11.99-3.5,3.97-1.28,7.16-2.46,9.57-3.56l2.97,2.53ZM142.87,31.01c-.26,4.07-1.41,7.68-3.45,10.82,2.82.76,6.11,1.04,9.86.84-.33.47-.66,1.1-.99,1.89-.33.78-.58,1.49-.75,2.11-3.85.03-7.39-.5-10.63-1.6-2.05,2.13-4.77,4.06-8.14,5.81-.33-.39-.8-.85-1.4-1.4-.6-.54-1.11-.94-1.54-1.18,2.88-1.32,5.37-2.9,7.46-4.73-1.85-.97-3.66-2.23-5.43-3.78-.8,4.96-2.82,9.12-6.05,12.46-.37-.41-.88-.84-1.54-1.3-.66-.45-1.26-.79-1.8-1.01,2.4-2.36,4.02-5.07,4.86-8.15s1.16-6.42.96-10.05l-5.68,1.28-.76-3.39,6.17-1.38-.38-2.92-5.51,1.23-.73-3.26,3.04-.68c-.72-1.41-1.71-3.01-2.97-4.8l2.94-1.54c.6.76,1.21,1.59,1.83,2.48s1.08,1.63,1.4,2.21l-2.31,1.45,11.59-2.6c.46-1.25.89-2.61,1.28-4.1s.66-2.81.8-3.95l4.14.32c-1.02,3.01-1.86,5.31-2.52,6.91l4.8-1.08.73,3.26-14.54,3.26c.15,1.23.26,2.21.33,2.93l16.17-3.63.76,3.39-16.66,3.74.1,2.52,11.41-2.56.69-.25,2.45.42ZM127.39,20.78c-.53-1.52-1.32-3.36-2.4-5.53l3.13-1.3c1.03,1.99,1.86,3.75,2.48,5.28l-3.21,1.55ZM129.4,36.39c1.83,1.84,3.99,3.27,6.47,4.29,1.4-1.86,2.36-3.99,2.87-6.38l-9.34,2.09Z"/>
<path class="cls-1" d="M153.49,18.03l3.88-.66,1.52-.24c-.16-2.16-.28-3.69-.37-4.59l-.32-2.78,4.22-.43c.09.6.2,1.57.34,2.92.18,1.8.29,3.18.33,4.14l4.76-.48c1.98-.2,3.54.26,4.7,1.37,1.16,1.11,1.98,3.08,2.48,5.9.5,2.55.85,4.82,1.05,6.79.39,3.84.16,6.85-.68,9.06s-2.54,3.48-5.11,3.83c-1.55.22-3.17.23-4.85.03l-.44-4.4c1.87.24,3.31.3,4.33.2.78-.08,1.39-.39,1.83-.93.44-.54.68-1.29.71-2.23.09-1.82,0-4.02-.26-6.6-.14-1.44-.38-3.14-.69-5.1-.26-1.43-.7-2.42-1.3-2.98-.6-.56-1.43-.79-2.47-.68l-1.84.19c-.3.03-.98.13-2.06.3.11,4.74-.04,8.92-.46,12.55s-1.09,7.2-2.01,10.71l-4.63.47c1-2.98,1.77-6.49,2.3-10.56s.77-8.19.71-12.39c-1.93.35-3.67.69-5.21,1.02l-.44-4.4ZM171.66,1.04l3.41-.34.67,6.65-3.41.34-.67-6.65ZM177.92,9.12c2.82,4.59,4.96,9.76,6.42,15.51l-4.76.48c-1.31-5.8-3.42-10.97-6.33-15.52l4.67-.47ZM177,.5l3.42-.34.67,6.65-3.41.34-.67-6.65Z"/>
<path class="cls-1" d="M226.9,37.19c.57,0,.99-.19,1.26-.54.26-.35.44-1.02.53-2,.09-.98.16-2.6.22-4.86.43.32,1.03.65,1.8.99.77.33,1.48.59,2.11.76-.14,2.59-.38,4.55-.72,5.88-.34,1.33-.87,2.27-1.6,2.83-.73.55-1.79.84-3.17.86l-6.01.09c-1.51.02-2.66-.13-3.46-.46-.8-.33-1.37-.9-1.7-1.71-.33-.81-.5-1.96-.53-3.47l-.23-14.81-7.45.12c-.27,3.65-.8,6.74-1.59,9.26-.79,2.53-2.17,4.78-4.14,6.77-1.97,1.99-4.77,3.61-8.39,4.87-.25-.54-.64-1.17-1.16-1.9-.52-.73-1.03-1.29-1.52-1.67,3.3-1.05,5.8-2.39,7.5-4.03,1.71-1.64,2.88-3.48,3.53-5.52.65-2.04,1.08-4.62,1.3-7.72l-11.56.18-.06-4.02,17.75-.28-.26-16.75,4.24-.07.26,16.75,18.11-.29.06,4.02-12.37.2.23,14.81c.01.75.13,1.24.36,1.46.23.22.75.33,1.56.31l5.1-.08ZM200.35,14.8c-.38-1.41-1.07-3.15-2.05-5.23-.98-2.08-2.03-4.01-3.14-5.8l3.77-1.46c1.2,1.76,2.32,3.64,3.34,5.66,1.03,2.02,1.73,3.74,2.11,5.18l-4.04,1.65ZM228.7,2.97c-2.24,4.82-4.25,8.59-6.01,11.3l-3.63-1.34c.94-1.55,1.9-3.4,2.89-5.56.99-2.15,1.77-4.12,2.35-5.91l4.41,1.51Z"/>
<path class="cls-1" d="M249.27,9.07c-1.43,5.68-2.45,10.9-3.05,15.65-.53,5.48-.69,10.95-.46,16.41l-4.44-.53c-.1-6.05.12-11.46.66-16.25.56-4.42,1.56-9.68,3.02-15.79l4.26.51ZM256.38,28.06c-.3.51-.59,1.2-.86,2.06s-.44,1.61-.52,2.24c-.17,1.43.22,2.63,1.17,3.57.95.95,2.36,1.55,4.24,1.8,2.33.28,4.56.42,6.68.43l-.51,4.3c-.34.02-1.03,0-2.09-.07l-4.95-.45c-1.79-.27-3.37-.83-4.76-1.66-1.39-.83-2.45-1.85-3.18-3.04-.74-1.19-1.06-2.47-.95-3.82.15-2.32.66-4.27,1.52-5.87l4.21.5ZM269.22,13.45l-.5,4.17-14.8-1.76.5-4.17,14.8,1.76Z"/>
<path class="cls-1" d="M279.2,19.79l.86-4.02,5.17,1.1c.79-1.83,1.36-3.25,1.69-4.26l4.28.92c-.77,1.87-1.36,3.28-1.78,4.24l5.43,1.16-.86,4.02-6.05-1.29c-4.32,9.39-7.07,15.16-8.27,17.31l-4.42-.94c4.02-7.7,6.82-13.46,8.4-17.28l-4.46-.95ZM298.54,19.62c1.08.14,2.25.34,3.52.61,2.03.43,3.83.93,5.41,1.48l-.87,4.06c-1.09-.39-2.69-.82-4.8-1.3l-2.39,11.17c1.47.9,3,2.01,4.6,3.34l-1.06,4.95c-1.47-1.61-2.96-2.94-4.46-4l-.9,4.2c-.26,1.21-.54,2.11-.83,2.71-.3.6-.66,1.1-1.08,1.5-1.39,1.33-3.3,1.74-5.71,1.23-1.36-.29-2.57-.75-3.63-1.38-1.51-.88-2.57-2.03-3.19-3.45-.62-1.42-.73-3.07-.33-4.92.55-2.59,1.83-4.48,3.82-5.67,1.99-1.19,4.32-1.5,6.97-.94.62.13,1.27.32,1.96.56l2.98-14.14ZM292.2,45.49c.42-.17.72-.46.9-.87s.36-1.05.55-1.94l1.03-4.81c-.56-.24-1.17-.43-1.82-.57-1.47-.32-2.72-.19-3.75.38-1.03.57-1.75,1.53-2.16,2.89-.36,1.37-.18,2.47.52,3.3s1.64,1.37,2.82,1.62c.85.18,1.49.19,1.91.02Z"/>
<path class="cls-1" d="M322.07,22.25l17.91,5.68-1.31,4.13-11.58,4.38c1.62.17,3.12.47,4.5.91,1.41.45,2.48.95,3.22,1.5,1.75,1.25,2.87,2.78,3.37,4.6s.39,3.94-.31,6.37c-.63,2.08-1.71,3.79-3.25,5.15-1.54,1.36-3.36,2.23-5.47,2.6-2.58.38-5.11.18-7.58-.6-1.46-.46-2.78-1.09-3.96-1.87-1.39-.89-2.36-2.05-2.91-3.51-.55-1.45-.59-2.93-.11-4.42.26-.8.76-1.54,1.51-2.22.8-.73,1.73-1.18,2.8-1.36,1.07-.18,2.21-.08,3.41.3.52.16,1.02.37,1.51.62,1.56.87,2.72,1.99,3.51,3.36.78,1.37,1.32,3.13,1.62,5.28,1.03-.24,2-.8,2.92-1.68.92-.87,1.56-1.86,1.91-2.95.67-2.12.53-3.9-.42-5.32-.95-1.42-2.75-2.52-5.38-3.29-2.31-.58-4.39-.77-6.21-.57-1.83.19-3.66.69-5.5,1.5l-3.96,1.73,1.66-5.25,18.83-7.39c-.98-.31-1.89-.58-2.73-.82l-9.27-2.89,1.26-3.96ZM319.75,47.34c-.6.19-.99.57-1.17,1.15-.17.55-.13,1.14.14,1.8.27.65.77,1.27,1.5,1.85.71.45,1.48.8,2.32,1.07,1.03.33,1.83.42,2.38.28-.01-1.46-.28-2.69-.8-3.69-.52-1-1.24-1.74-2.16-2.23-.87-.34-1.61-.41-2.2-.22Z"/>
<path class="cls-1" d="M351.73,67c-.66-2.1-1.49-4.31-2.49-6.63-1-2.32-2.01-4.4-3.02-6.26l4.64-1.67c.98,1.78,2.01,3.89,3.07,6.33,1.06,2.44,1.92,4.64,2.57,6.61l-4.76,1.62Z"/></g></svg>